<svg height="220" viewBox="0 0 1203 220" width="1203" xmlns="http://www.w3.org/2000/svg"><g fill="#e6e6e6" fill-rule="evenodd"><path d="m264 40h48.545455c24.022493 0 40.454545 16.6555787 40.454545 41.2584893 0 24.1801797-17.015933 40.7512127-41.372071 40.7512127h-26.107779v39.990298h-21.52015zm21 19v46h21.444241c15.473492 0 24.555759-8.1777778 24.555759-22.8296296 0-15.0777778-8.829982-23.1703704-24.471664-23.1703704zm77 103v-91.4946043h19.916667v14.2176259h1.416666c2.5-9.0323741 12.333334-15.7230216 24.083334-15.7230216 3 0 6.666666.3345324 8.583333.919964v19.2356115c-1.583333-.5854316-7.083333-1.1708633-10.583333-1.1708633-13.416667 0-22.75 8.3633094-22.75 21.1591728v52.856115zm96.5 2c-27.125475 0-43.5-18.052724-43.5-48 0-29.7785589 16.622624-48 43.5-48 26.960076 0 43.5 18.1370826 43.5 48 0 29.947276-16.457224 48-43.5 48zm-.958564-18c14.337017 0 22.458564-10.969529 22.458564-30 0-18.9473684-8.20442-30-22.458564-30-14.337016 0-22.541436 11.0526316-22.541436 30 0 19.030471 8.20442 30 22.541436 30zm91.206739-2c14.521898 0 23.251825-11.016105 23.251825-28.458272 0-17.4421672-8.813869-28.541728-23.251825-28.541728-14.521898 0-22.748175 11.0995608-22.748175 28.541728 0 17.442167 8.226277 28.458272 22.748175 28.458272zm.959561 53c-23.34957 0-38.638968-10.387435-40.300859-26.136126h20.690544c1.329513 6.282723 8.641834 10.303665 19.942694 10.303665 14.126074 0 22.352435-6.70157 22.352435-18.17801v-17.340314h-1.412607c-5.234957 9.801047-15.123209 15.162303-27.753582 15.162303-22.934097 0-37.226361-17.926701-37.226361-45.486911 0-28.0628269 14.375358-46.324607 37.558739-46.324607 12.381089 0 23.183381 6.1989529 28.169055 16.1675393h1.412607v-14.6596859h19.859599v91.9790576c0 21.193717-16.7851 34.513089-43.292264 34.513089zm56.292264-35v-91.4946043h19.916667v14.2176259h1.416666c2.5-9.0323741 12.333334-15.7230216 24.083334-15.7230216 3 0 6.666666.3345324 8.583333.919964v19.2356115c-1.583333-.5854316-7.083333-1.1708633-10.583333-1.1708633-13.416667 0-22.75 8.3633094-22.75 21.1591728v52.856115zm94.448544-77c-12.069903 0-20.551457 8.7669173-21.448544 22h42c-.407767-13.3984962-8.4-22-20.551456-22zm21.152641 51.752197h19.486673c-3.897335 16.787346-18.906219 27.247803-40.300099 27.247803-26.700888 0-42.787759-17.968366-42.787759-47.662566 0-29.6942003 16.335637-48.337434 42.621915-48.337434 25.871668 0 41.378085 17.4622144 41.378085 46.565905v6.748682h-63.352419v1.096661c.497533 15.353251 9.204344 24.970123 22.720632 24.970123 10.199408 0 17.247779-3.796134 20.232972-10.629174zm26.747202-40.4920916c0 13.9191566 8.303226 22.1019336 25.916129 26.1511426l16.270968 3.796133c8.722581 1.940246 12.664516 5.230229 12.664516 10.460457 0 6.833041-7.296774 11.47276-17.780645 11.47276-10.4 0-16.858065-4.04921-18.870968-10.88225h-20.548387c1.593548 16.787346 16.019355 26.741652 38.916129 26.741652s39.083871-11.810193 39.083871-29.525483c0-13.581723-8.135484-21.17399-25.664516-25.13884l-16.187097-3.711775c-9.225806-2.108964-13.587097-5.314587-13.587097-10.5448159 0-6.6643234 7.129033-11.2196836 16.606452-11.2196836 9.729032 0 15.851613 4.1335676 17.36129 10.6291739h19.541936c-1.509678-16.7873462-15.180645-26.4885764-36.987097-26.4885764-21.63871 0-36.735484 11.5571178-36.735484 28.2601054zm80 0c0 13.9191566 8.303226 22.1019336 25.916129 26.1511426l16.270968 3.796133c8.722581 1.940246 12.664516 5.230229 12.664516 10.460457 0 6.833041-7.296774 11.47276-17.780645 11.47276-10.4 0-16.858065-4.04921-18.870968-10.88225h-20.548387c1.593548 16.787346 16.019355 26.741652 38.916129 26.741652s39.083871-11.810193 39.083871-29.525483c0-13.581723-8.135484-21.17399-25.664516-25.13884l-16.187097-3.711775c-9.225806-2.108964-13.587097-5.314587-13.587097-10.5448159 0-6.6643234 7.129033-11.2196836 16.606452-11.2196836 9.729032 0 15.851613 4.1335676 17.36129 10.6291739h19.541936c-1.509678-16.7873462-15.180645-26.4885764-36.987097-26.4885764-21.63871 0-36.735484 11.5571178-36.735484 28.2601054zm84.651613 65.7398946h20v-92h-20zm9.5-107c7.434641 0 12.5-4.8686131 12.5-11.5s-5.065359-11.5-12.5-11.5c-7.352941 0-12.5 4.8686131-12.5 11.5s5.147059 11.5 12.5 11.5zm64 109c-27.125475 0-43.5-18.052724-43.5-48 0-29.7785589 16.622624-48 43.5-48 26.96008 0 43.5 18.1370826 43.5 48 0 29.947276-16.45722 48-43.5 48zm.041436-18c14.337014 0 22.458564-10.969529 22.458564-30 0-18.9473684-8.20442-30-22.458564-30-14.337016 0-22.541436 11.0526316-22.541436 30 0 19.030471 8.20442 30 22.541436 30zm51.458564 16h20.45094v-53.654122c0-13.5609318 7.6691-22.1523296 19.87369-22.1523296 12.45199 0 18.22443 7.0752688 18.22443 21.1415766v54.664875h20.45094v-59.634409c0-21.9838706-10.96764-34.365591-31.08873-34.365591-13.44154 0-22.51252 6.3172043-26.80062 16.59319h-1.40188v-14.7401434h-19.70877zm89.34839-65.7398946c0 13.9191566 8.30322 22.1019336 25.91613 26.1511426l16.27096 3.796133c8.72258 1.940246 12.66452 5.230229 12.66452 10.460457 0 6.833041-7.29677 11.47276-17.78065 11.47276-10.4 0-16.85806-4.04921-18.87096-10.88225h-20.54839c1.59355 16.787346 16.01935 26.741652 38.91613 26.741652 22.89677 0 39.08387-11.810193 39.08387-29.525483 0-13.581723-8.13548-21.17399-25.66452-25.13884l-16.18709-3.711775c-9.22581-2.108964-13.5871-5.314587-13.5871-10.5448159 0-6.6643234 7.12903-11.2196836 16.60645-11.2196836 9.72903 0 15.85161 4.1335676 17.36129 10.6291739h19.54194c-1.50968-16.7873462-15.18065-26.4885764-36.9871-26.4885764-21.63871 0-36.73548 11.5571178-36.73548 28.2601054z"/><path d="m51.7560989.21189026 2.3805967 8.29992972.0423044-.04824824 13.5022738 47.08859436c-23.8881635 24.2310905-56.2861211 57.0920909-41.0729104 103.0771669 10.7440399 32.476083 47.3700011 51.971592 83.0201536 43.215127l5.206483 18.155112-52.7889762.000428c-21.5747542 0-29.3982814-2.24638-37.285689-6.464612-7.8874077-4.218231-14.0774914-10.408315-18.29572316-18.295723-4.17429187-7.805247-6.4175981-15.547938-6.46388071-36.615938l-.00073093-96.5777032c0-21.5747542 2.24637986-29.3982814 6.46461164-37.285689 4.21823176-7.8874077 10.40831546-14.0774914 18.29572316-18.29572316 6.4837295-3.46753651 12.9242923-5.60260896 26.9957641-6.25272138zm47.9058099-.213083 58.2920672.00119274c21.574754 0 29.398282 2.24637986 37.285689 6.46461164 7.887408 4.21823176 14.077492 10.40831546 18.295723 18.29572316 4.218232 7.8874076 6.464612 15.7109348 6.464612 37.285689v95.9079522c0 21.574754-2.24638 29.398282-6.464612 37.285689-4.218231 7.887408-10.408315 14.077492-18.295723 18.295723-7.887407 4.218232-15.710935 6.464612-37.285689 6.464612l-34.100976-.000428-5.936577-20.707785c36.200759-13.180504 52.42003-40.454708 43.144133-72.803603-9.439035-32.9178271-42.334115-48.4224133-73.781493-36.5550686l-.650063.2504563-6.8650886-23.9456536c21.3193446-21.6166326 28.1341386-38.3370092 21.4826216-61.53360334-.470329-1.64023422-1.000601-3.20836238-1.5846242-4.7055075zm-26.9193183 73.20622764 5.9359323 20.7015589c-23.9384659 13.3656932-28.3343763 37.8730132-22.2168017 54.7374492 6.7890281 18.715445 22.216673 24.723012 23.3238815 21.811526 1.2164589-3.198768-9.5853531-3.663841-15.7171872-22.567733-5.2873901-16.300547 1.3659314-33.376234 18.0460938-41.998976l24.2722108 84.643646c-24.7072595 5.162698-53.4621561-6.697263-63.3485092-36.614356-10.1928913-30.844708 7.4668198-58.1533879 29.7043797-80.7131151zm72.2656795 59.3110451c7.634625 24.206902-5.624073 46.278143-30.3041 55.574598l-24.5035147-85.453225c.2205166-.066434.4422645-.131626.665241-.195563 24.9733677-7.1609984 46.3115137 5.245089 54.1423737 30.07419zm17.327034-78.546118c-2.55308.7320838-3.513353 2.3470747-2.88082 4.8449727l.063967.2367645 23.403804 81.6187648.432967-.764114c14.197941-25.152359 19.490666-44.0276636 15.878176-56.6259149-5.418736-18.8973769-20.675935-11.2361533-24.986449-.947033l-.12725.3125712-7.172133-25.0122021-.062261-.211586c-.759915-2.5159569-1.988296-4.1867802-4.550001-3.4522232zm27.029607 37.1265701c2.470783 8.6166438 1.073929 18.1134249-4.190561 28.4903439l-.296451.577401-6.983393-24.3539868c1.684411-9.0310323 7.695598-17.878075 11.470405-4.7137581zm-101.3898714-91.09796036c.8138023 1.73834318 1.5508601 3.64900634 2.1900495 5.74583046 5.2082388 17.0853301-7.4701171 33.6318147-15.5428697 42.5671857l-13.6182194-47.49301616.0080871-.0089328-.2311114-.80700086c.1972438-.00083282.3956726-.00146861.5952977-.00190715z" fill-rule="nonzero"/></g></svg>