<svg height="220" viewBox="0 0 1203 220" width="1203" xmlns="http://www.w3.org/2000/svg" xmlns:xlink="http://www.w3.org/1999/xlink"><defs><path id="a" d="m62.0460238 0h95.9079522c21.574754 0 29.398282 2.24637986 37.285689 6.46461164 7.887408 4.21823176 14.077492 10.40831546 18.295723 18.29572316 4.218232 7.8874076 6.464612 15.7109348 6.464612 37.285689v95.9079522c0 21.574754-2.24638 29.398282-6.464612 37.285689-4.218231 7.887408-10.408315 14.077492-18.295723 18.295723-7.887407 4.218232-15.710935 6.464612-37.285689 6.464612h-95.9079522c-21.5747542 0-29.3982814-2.24638-37.285689-6.464612-7.8874077-4.218231-14.0774914-10.408315-18.29572316-18.295723-4.21823178-7.887407-6.46461164-15.710935-6.46461164-37.285689v-95.9079522c0-21.5747542 2.24637986-29.3982814 6.46461164-37.285689 4.21823176-7.8874077 10.40831546-14.0774914 18.29572316-18.29572316 7.8874076-4.21823178 15.7109348-6.46461164 37.285689-6.46461164z"/><linearGradient id="b" x1="50%" x2="50%" y1="14.173521%" y2="100%"><stop offset="0" stop-color="#ffc44b"/><stop offset="1" stop-color="#ffba10"/></linearGradient><mask id="c" fill="#fff"><use fill="#fff" fill-rule="evenodd" xlink:href="#a"/></mask></defs><g fill="none" fill-rule="evenodd"><path d="m264 40h48.545455c24.022493 0 40.454545 16.6555787 40.454545 41.2584893 0 24.1801797-17.015933 40.7512127-41.372071 40.7512127h-26.107779v39.990298h-21.52015zm21 19v46h21.444241c15.473492 0 24.555759-8.1777778 24.555759-22.8296296 0-15.0777778-8.829982-23.1703704-24.471664-23.1703704zm77 103v-91.4946043h19.916667v14.2176259h1.416666c2.5-9.0323741 12.333334-15.7230216 24.083334-15.7230216 3 0 6.666666.3345324 8.583333.919964v19.2356115c-1.583333-.5854316-7.083333-1.1708633-10.583333-1.1708633-13.416667 0-22.75 8.3633094-22.75 21.1591728v52.856115zm96.5 2c-27.125475 0-43.5-18.052724-43.5-48 0-29.7785589 16.622624-48 43.5-48 26.960076 0 43.5 18.1370826 43.5 48 0 29.947276-16.457224 48-43.5 48zm-.958564-18c14.337017 0 22.458564-10.969529 22.458564-30 0-18.9473684-8.20442-30-22.458564-30-14.337016 0-22.541436 11.0526316-22.541436 30 0 19.030471 8.20442 30 22.541436 30zm91.206739-2c14.521898 0 23.251825-11.016105 23.251825-28.458272 0-17.4421672-8.813869-28.541728-23.251825-28.541728-14.521898 0-22.748175 11.0995608-22.748175 28.541728 0 17.442167 8.226277 28.458272 22.748175 28.458272zm.959561 53c-23.34957 0-38.638968-10.387435-40.300859-26.136126h20.690544c1.329513 6.282723 8.641834 10.303665 19.942694 10.303665 14.126074 0 22.352435-6.70157 22.352435-18.17801v-17.340314h-1.412607c-5.234957 9.801047-15.123209 15.162303-27.753582 15.162303-22.934097 0-37.226361-17.926701-37.226361-45.486911 0-28.0628269 14.375358-46.324607 37.558739-46.324607 12.381089 0 23.183381 6.1989529 28.169055 16.1675393h1.412607v-14.6596859h19.859599v91.9790576c0 21.193717-16.7851 34.513089-43.292264 34.513089zm56.292264-35v-91.4946043h19.916667v14.2176259h1.416666c2.5-9.0323741 12.333334-15.7230216 24.083334-15.7230216 3 0 6.666666.3345324 8.583333.919964v19.2356115c-1.583333-.5854316-7.083333-1.1708633-10.583333-1.1708633-13.416667 0-22.75 8.3633094-22.75 21.1591728v52.856115zm94.448544-77c-12.069903 0-20.551457 8.7669173-21.448544 22h42c-.407767-13.3984962-8.4-22-20.551456-22zm21.152641 51.752197h19.486673c-3.897335 16.787346-18.906219 27.247803-40.300099 27.247803-26.700888 0-42.787759-17.968366-42.787759-47.662566 0-29.6942003 16.335637-48.337434 42.621915-48.337434 25.871668 0 41.378085 17.4622144 41.378085 46.565905v6.748682h-63.352419v1.096661c.497533 15.353251 9.204344 24.970123 22.720632 24.970123 10.199408 0 17.247779-3.796134 20.232972-10.629174zm26.747202-40.4920916c0 13.9191566 8.303226 22.1019336 25.916129 26.1511426l16.270968 3.796133c8.722581 1.940246 12.664516 5.230229 12.664516 10.460457 0 6.833041-7.296774 11.47276-17.780645 11.47276-10.4 0-16.858065-4.04921-18.870968-10.88225h-20.548387c1.593548 16.787346 16.019355 26.741652 38.916129 26.741652s39.083871-11.810193 39.083871-29.525483c0-13.581723-8.135484-21.17399-25.664516-25.13884l-16.187097-3.711775c-9.225806-2.108964-13.587097-5.314587-13.587097-10.5448159 0-6.6643234 7.129033-11.2196836 16.606452-11.2196836 9.729032 0 15.851613 4.1335676 17.36129 10.6291739h19.541936c-1.509678-16.7873462-15.180645-26.4885764-36.987097-26.4885764-21.63871 0-36.735484 11.5571178-36.735484 28.2601054zm80 0c0 13.9191566 8.303226 22.1019336 25.916129 26.1511426l16.270968 3.796133c8.722581 1.940246 12.664516 5.230229 12.664516 10.460457 0 6.833041-7.296774 11.47276-17.780645 11.47276-10.4 0-16.858065-4.04921-18.870968-10.88225h-20.548387c1.593548 16.787346 16.019355 26.741652 38.916129 26.741652s39.083871-11.810193 39.083871-29.525483c0-13.581723-8.135484-21.17399-25.664516-25.13884l-16.187097-3.711775c-9.225806-2.108964-13.587097-5.314587-13.587097-10.5448159 0-6.6643234 7.129033-11.2196836 16.606452-11.2196836 9.729032 0 15.851613 4.1335676 17.36129 10.6291739h19.541936c-1.509678-16.7873462-15.180645-26.4885764-36.987097-26.4885764-21.63871 0-36.735484 11.5571178-36.735484 28.2601054zm84.651613 65.7398946h20v-92h-20zm9.5-107c7.434641 0 12.5-4.8686131 12.5-11.5s-5.065359-11.5-12.5-11.5c-7.352941 0-12.5 4.8686131-12.5 11.5s5.147059 11.5 12.5 11.5zm64 109c-27.125475 0-43.5-18.052724-43.5-48 0-29.7785589 16.622624-48 43.5-48 26.96008 0 43.5 18.1370826 43.5 48 0 29.947276-16.45722 48-43.5 48zm.041436-18c14.337014 0 22.458564-10.969529 22.458564-30 0-18.9473684-8.20442-30-22.458564-30-14.337016 0-22.541436 11.0526316-22.541436 30 0 19.030471 8.20442 30 22.541436 30zm51.458564 16h20.45094v-53.654122c0-13.5609318 7.6691-22.1523296 19.87369-22.1523296 12.45199 0 18.22443 7.0752688 18.22443 21.1415766v54.664875h20.45094v-59.634409c0-21.9838706-10.96764-34.365591-31.08873-34.365591-13.44154 0-22.51252 6.3172043-26.80062 16.59319h-1.40188v-14.7401434h-19.70877zm89.34839-65.7398946c0 13.9191566 8.30322 22.1019336 25.91613 26.1511426l16.27096 3.796133c8.72258 1.940246 12.66452 5.230229 12.66452 10.460457 0 6.833041-7.29677 11.47276-17.78065 11.47276-10.4 0-16.85806-4.04921-18.87096-10.88225h-20.54839c1.59355 16.787346 16.01935 26.741652 38.91613 26.741652 22.89677 0 39.08387-11.810193 39.08387-29.525483 0-13.581723-8.13548-21.17399-25.66452-25.13884l-16.18709-3.711775c-9.22581-2.108964-13.5871-5.314587-13.5871-10.5448159 0-6.6643234 7.12903-11.2196836 16.60645-11.2196836 9.72903 0 15.85161 4.1335676 17.36129 10.6291739h19.54194c-1.50968-16.7873462-15.18065-26.4885764-36.9871-26.4885764-21.63871 0-36.73548 11.5571178-36.73548 28.2601054z" fill="#1d1d1d"/><use fill="#191919" fill-rule="nonzero" xlink:href="#a"/><g mask="url(#c)"><path d="m103.394971 6.85275226c6.651509 23.19656694-.163261 39.91693154-21.4825471 61.53352724l6.8637916 23.9447704c.215879-.0839436.4329726-.1671121.651285-.249497 31.4473775-11.8673447 64.3424585 3.6372415 73.7814935 36.5550681 9.275874 32.348817-6.943296 59.622968-43.143871 72.803508l7.364876 25.688362c3.586067 12.506101-3.113771 23.885306-14.746493 27.220936-11.632723 3.335629-23.5782288-2.732278-26.9138583-14.365-.9437018-3.291079.8062296-6.642209 3.8961715-7.528236 3.0451601-.873185 6.178669.706268 7.0670292 3.535795l.0377283.125639c1.7720532 6.179884 7.8160973 9.868487 14.3982553 7.981083 6.516337-1.868529 9.987415-7.05281 7.85857-14.820303l-.066227-.236168-7.183291-25.049568c-35.6504458 8.757032-72.2769499-10.738533-83.0210831-43.214898-15.2132742-45.985269 17.1850173-78.8463512 41.0732095-103.0774708l-13.5027188-47.0878962-.0421585.0478535-3.0930414-10.78671728-.1451906-.51487781c-2.3362155-8.43094503-2.8671556-17.85853631 10.0138448-21.55210371 13.1438778-3.7689463 33.3493392 4.6870016 40.3342251 29.04619356zm-58.2083227 149.21383574c9.8863386 29.917049 38.6411656 41.777019 63.3484007 36.614378l-24.2720493-84.643696c-16.6802013 8.622733-23.3335425 25.698439-18.0461468 41.999003 6.1318341 18.903893 16.9336461 19.368966 15.7171872 22.567734-1.1072085 2.911486-16.5348534-3.096081-23.3238815-21.811526-6.1175757-16.86444-1.7216625-41.371765 22.2168155-54.7374574l-5.9357206-20.70178c-22.237666 22.5597713-39.8975309 49.8685324-29.7046052 80.7133444zm47.8276855-51.476261-.6654797.195827 24.5039749 85.452878c24.679885-9.296505 37.938481-31.367686 30.303879-55.574515-7.830861-24.829101-29.169006-37.2351879-54.1423742-30.07419zm76.0453602-44.9328458 7.208443 25.1369296c4.128533-10.4442096 19.640228-18.4537977 25.113698.6344618 3.612491 12.5982513-1.680235 31.4735564-15.878176 56.6259154l-.432966.764114-23.403805-81.6187653c-.754961-2.6328633.18399-4.3267757 2.816853-5.0817372 2.591072-.7429779 3.818075.9748905 4.575953 3.5390817zm10.98325 38.3012465 6.983393 24.3539863c5.507879-10.602285 7.003549-20.291533 4.487011-29.0677444-3.774807-13.1643169-9.785994-4.3172742-11.470404 4.7137581zm-114.1050617-111.3585793c-5.7330735 1.6439323-5.9527569 5.19847559-4.3996006 10.69922495l1.6222429 5.65870309-.0080767.00846818 13.6179298 47.49378978.4897116-.545195c8.0830215-9.0521858 20.1575702-25.2784832 15.0534373-42.0222997-5.992018-19.6564725-20.5846611-22.9532291-26.3756443-21.2926913z" fill="#000" fill-opacity=".5"/><path d="m88.2375875 5.65736401v228.94210899c0 8.216899-4.793191 12.325348-11.6406068 12.325348-6.8474157 0-11.6406067-5.211677-11.6406067-11.640607 0-3.025378-2.6058386-5.477932-5.8203034-5.477932s-5.8203034 2.738966-5.8203034 6.162674c0 12.101514 9.8102159 21.226989 21.9117304 21.226989s21.6783461-9.091669 21.6783461-22.101759v-234.11961677z" fill="#ffc44b" transform="matrix(.9612617 -.27563736 .27563736 .9612617 -32.671054 25.703888)"/><path d="m115.906884 192.284617 3.224177 11.241945c-1.333009.517541-2.694512 1.01535-4.084217 1.492945-1.375859.472838-2.755603.90172-4.137659 1.287538l-3.224447-11.246523c1.401312-.355232 2.78703-.766323 4.152835-1.233076 1.39085-.475312 2.747814-.99018 4.069311-1.542829zm-28.0594321-97.8543674 3.6235702 12.6374284c-.5137721.131533-1.0291896.271389-1.546165.419629-2.3564085.675689-4.5756041 1.491493-6.6543774 2.431937l-3.461973-12.0704624c2.0431447-1.0378065 4.2180168-1.9979547 6.5295171-2.870249.5028066-.1897449 1.0059832-.3724923 1.5094281-.548283zm-12.3635721-43.1140896 5.1835472 18.0711464c-1.4471793 1.5088211-2.9667262 3.0404493-4.5590078 4.5989052l-.6005157.5856864c-.6198852.6024698-1.2373046 1.2085399-1.8517827 1.8181857l-5.0656909-17.6703491c.6192423-.6292394 1.2315041-1.2525203 1.8357462-1.8699262l1.0536354-1.1110097c1.1769964-1.2486789 2.5478527-2.7342638 4.0040683-4.4226387z" fill="#666" fill-opacity=".407835"/><path d="m60.9123084-24.3418788c13.1438778-3.7689463 33.3493392 4.6870016 40.3342246 29.04619356 6.915038 24.11560004-.724392 41.23166604-24.0848834 64.12659814l-.7127069.6955679c-23.9173814 23.245435-44.1641547 51.8507372-33.4107319 84.3916692 10.7534227 32.540932 43.8302066 43.718485 69.7404012 34.863879 25.910194-8.854606 40.060519-31.436848 32.229658-56.265949-7.83086-24.829101-29.169006-37.2351884-54.1423737-30.07419-23.0017863 6.595656-32.9293151 26.542054-26.7974809 45.445946 6.1318341 18.903892 16.9336461 19.368965 15.7171872 22.567733-1.1072085 2.911486-16.5348534-3.096081-23.3238815-21.811526s-.6300361-46.843583 30.8173419-58.7109276c31.447378-11.8673447 64.342458 3.6372415 73.781493 36.5550686 9.439035 32.917827-7.521769 60.580892-45.072672 73.485906-37.5509041 12.905014-77.9950143-6.932732-89.3795206-41.344757-16.0123577-48.400663 20.7198407-82.2622257 44.7588518-106.8249418l.6672428-.7021377c7.4792306-7.8953712 23.9428885-26.2910729 18.1306311-45.3578513-5.992018-19.6564725-20.5846611-22.9532291-26.3756443-21.2926913-5.7330735 1.6439323-5.9527569 5.1984756-4.3996006 10.69922495l1.6222429 5.65870309-6.8753915 7.70218104-3.0930414-10.78671726-.1451906-.51487781c-2.3362155-8.43094501-2.8671556-17.85853631 10.0138448-21.55210371zm101.4229956 78.3118408c2.591072-.7429779 3.818074.9748905 4.575952 3.5390817l7.208443 25.1369296c4.128534-10.4442096 19.640228-18.4537977 25.113699.6344618 3.61249 12.5982513-1.680235 31.4735559-15.878176 56.6259149l-.432967.764114-23.403804-81.6187648c-.754962-2.6328633.183989-4.3267757 2.816853-5.0817372zm15.559202 41.8403282 6.983393 24.3539868c5.507879-10.602285 7.00355-20.2915336 4.487012-29.0677449-3.774807-13.1643169-9.785994-4.3172742-11.470405 4.7137581z" fill="url(#b)"/></g></g></svg>