<svg height="165" viewBox="0 0 939 165" width="939" xmlns="http://www.w3.org/2000/svg"><path d="m0 8h48.5454545c24.022493 0 40.4545455 16.6555787 40.4545455 41.2584893 0 24.1801801-17.0159325 40.7512127-41.3720712 40.7512127h-26.1077788v39.990298h-21.52015zm21 19v46h21.4442413c15.4734918 0 24.5557587-8.1777778 24.5557587-22.8296296 0-15.0777778-8.8299817-23.1703704-24.4716636-23.1703704zm77 103v-91.4946043h19.916667v14.2176259h1.416666c2.5-9.0323741 12.333334-15.7230216 24.083334-15.7230216 3 0 6.666666.3345324 8.583333.919964v19.2356115c-1.583333-.5854316-7.083333-1.1708633-10.583333-1.1708633-13.416667 0-22.75 8.3633094-22.75 21.1591727v52.8561151zm96.5 2c-27.125475 0-43.5-18.052724-43.5-48 0-29.7785589 16.622624-48 43.5-48 26.960076 0 43.5 18.1370826 43.5 48 0 29.947276-16.457224 48-43.5 48zm-.958564-18c14.337017 0 22.458564-10.969529 22.458564-30 0-18.9473684-8.20442-30-22.458564-30-14.337016 0-22.541436 11.0526316-22.541436 30 0 19.030471 8.20442 30 22.541436 30zm91.206739-2c14.521898 0 23.251825-11.016105 23.251825-28.4582723 0-17.4421669-8.813869-28.5417277-23.251825-28.5417277-14.521898 0-22.748175 11.0995608-22.748175 28.5417277 0 17.4421673 8.226277 28.4582723 22.748175 28.4582723zm.959561 53c-23.34957 0-38.638968-10.387435-40.300859-26.136126h20.690544c1.329513 6.282723 8.641834 10.303665 19.942694 10.303665 14.126074 0 22.352435-6.70157 22.352435-18.17801v-17.340314h-1.412607c-5.234957 9.801047-15.123209 15.162303-27.753582 15.162303-22.934097 0-37.226361-17.926701-37.226361-45.4869107 0-28.0628272 14.375358-46.3246073 37.558739-46.3246073 12.381089 0 23.183381 6.1989529 28.169055 16.1675393h1.412607v-14.6596859h19.859599v91.9790576c0 21.193717-16.7851 34.513089-43.292264 34.513089zm56.292264-35v-91.4946043h19.916667v14.2176259h1.416666c2.5-9.0323741 12.333334-15.7230216 24.083334-15.7230216 3 0 6.666666.3345324 8.583333.919964v19.2356115c-1.583333-.5854316-7.083333-1.1708633-10.583333-1.1708633-13.416667 0-22.75 8.3633094-22.75 21.1591727v52.8561151zm94.448544-77c-12.069903 0-20.551457 8.7669173-21.448544 22h42c-.407767-13.3984962-8.4-22-20.551456-22zm21.152641 51.752197h19.486673c-3.897335 16.787346-18.906219 27.247803-40.300099 27.247803-26.700888 0-42.787759-17.968366-42.787759-47.6625659 0-29.6942004 16.335637-48.3374341 42.621915-48.3374341 25.871668 0 41.378085 17.4622144 41.378085 46.5659051v6.7486819h-63.352419v1.0966608c.497533 15.3532512 9.204344 24.9701232 22.720632 24.9701232 10.199408 0 17.247779-3.796134 20.232972-10.629174zm26.747202-40.4920916c0 13.9191565 8.303226 22.1019333 25.916129 26.1511424l16.270968 3.7961336c8.722581 1.940246 12.664516 5.2302284 12.664516 10.4604566 0 6.833041-7.296774 11.47276-17.780645 11.47276-10.4 0-16.858065-4.04921-18.870968-10.88225h-20.548387c1.593548 16.787346 16.019355 26.741652 38.916129 26.741652s39.083871-11.810193 39.083871-29.525483c0-13.5817226-8.135484-21.1739898-25.664516-25.1388404l-16.187097-3.711775c-9.225806-2.1089631-13.587097-5.314587-13.587097-10.5448155 0-6.6643234 7.129033-11.2196836 16.606452-11.2196836 9.729032 0 15.851613 4.1335676 17.36129 10.6291739h19.541936c-1.509678-16.7873462-15.180645-26.4885764-36.987097-26.4885764-21.63871 0-36.735484 11.5571178-36.735484 28.2601054zm80 0c0 13.9191565 8.303226 22.1019333 25.916129 26.1511424l16.270968 3.7961336c8.722581 1.940246 12.664516 5.2302284 12.664516 10.4604566 0 6.833041-7.296774 11.47276-17.780645 11.47276-10.4 0-16.858065-4.04921-18.870968-10.88225h-20.548387c1.593548 16.787346 16.019355 26.741652 38.916129 26.741652s39.083871-11.810193 39.083871-29.525483c0-13.5817226-8.135484-21.1739898-25.664516-25.1388404l-16.187097-3.711775c-9.225806-2.1089631-13.587097-5.314587-13.587097-10.5448155 0-6.6643234 7.129033-11.2196836 16.606452-11.2196836 9.729032 0 15.851613 4.1335676 17.36129 10.6291739h19.541936c-1.509678-16.7873462-15.180645-26.4885764-36.987097-26.4885764-21.63871 0-36.735484 11.5571178-36.735484 28.2601054zm84.651613 65.7398946h20v-92h-20zm9.5-107c7.434641 0 12.5-4.8686131 12.5-11.5 0-6.63138686-5.065359-11.5-12.5-11.5-7.352941 0-12.5 4.86861314-12.5 11.5 0 6.6313869 5.147059 11.5 12.5 11.5zm64 109c-27.125475 0-43.5-18.052724-43.5-48 0-29.7785589 16.622624-48 43.5-48 26.960076 0 43.5 18.1370826 43.5 48 0 29.947276-16.457224 48-43.5 48zm.041436-18c14.337017 0 22.458564-10.969529 22.458564-30 0-18.9473684-8.20442-30-22.458564-30-14.337016 0-22.541436 11.0526316-22.541436 30 0 19.030471 8.20442 30 22.541436 30zm51.458564 16h20.450939v-53.6541219c0-13.5609319 7.669103-22.1523297 19.873696-22.1523297 12.451983 0 18.224426 7.0752688 18.224426 21.141577v54.6648746h20.450939v-59.6344086c0-21.983871-10.967641-34.3655914-31.088727-34.3655914-13.441544 0-22.512526 6.3172043-26.800626 16.59319h-1.401879v-14.7401434h-19.708768zm89.348387-65.7398946c0 13.9191565 8.303226 22.1019333 25.916129 26.1511424l16.270968 3.7961336c8.722581 1.940246 12.664516 5.2302284 12.664516 10.4604566 0 6.833041-7.296774 11.47276-17.780645 11.47276-10.4 0-16.858065-4.04921-18.870968-10.88225h-20.548387c1.593548 16.787346 16.019355 26.741652 38.916129 26.741652s39.083871-11.810193 39.083871-29.525483c0-13.5817226-8.135484-21.1739898-25.664516-25.1388404l-16.187097-3.711775c-9.225806-2.1089631-13.587097-5.314587-13.587097-10.5448155 0-6.6643234 7.129033-11.2196836 16.606452-11.2196836 9.729032 0 15.851613 4.1335676 17.36129 10.6291739h19.541936c-1.509678-16.7873462-15.180645-26.4885764-36.987097-26.4885764-21.63871 0-36.735484 11.5571178-36.735484 28.2601054z" fill="#1d1d1d" fill-rule="evenodd"/></svg>