<svg height="1024" viewBox="0 0 1024 1024" width="1024" xmlns="http://www.w3.org/2000/svg" xmlns:xlink="http://www.w3.org/1999/xlink"><defs><path id="a" d="m288.796038 1h446.407924c100.420674 0 136.835637 10.4558772 173.547934 30.0898287 36.712298 19.6339515 65.524324 48.4459774 85.158275 85.1582753 19.633949 36.712297 30.089829 73.12726 30.089829 173.547934v446.407924c0 100.420674-10.45588 136.835637-30.089829 173.547934-19.633951 36.712298-48.445977 65.524324-85.158275 85.158275-36.712297 19.633949-73.12726 30.089829-173.547934 30.089829h-446.407924c-100.420674 0-136.835637-10.45588-173.547934-30.089829-36.7122979-19.633951-65.5243238-48.445977-85.1582753-85.158275-19.6339515-36.712297-30.0898287-73.12726-30.0898287-173.547934v-446.407924c0-100.420674 10.4558772-136.835637 30.0898287-173.547934 19.6339515-36.7122979 48.4459774-65.5243238 85.1582753-85.1582753 36.712297-19.6339515 73.12726-30.0898287 173.547934-30.0898287z"/><linearGradient id="b" x1="50%" x2="50%" y1="14.173521%" y2="100%"><stop offset="0" stop-color="#ffc44b"/><stop offset="1" stop-color="#ffba10"/></linearGradient><mask id="c" fill="#fff"><use fill="#fff" fill-rule="evenodd" xlink:href="#a"/></mask></defs><g fill="none" fill-rule="evenodd" transform="translate(0 -1)"><use fill="#191919" fill-rule="nonzero" xlink:href="#a"/><g mask="url(#c)"><g transform="translate(.072727 .799058)"><path d="m481.256592 31.8964469c30.959749 107.9694751-.759906 185.7951721-99.991492 286.4105991l31.94783 111.452023c1.004819-.39072 2.015291-.777831 3.031436-1.161296 146.37325-55.237095 299.484897 16.929707 343.419314 170.147229 43.174977 150.569039-32.317887 277.517812-200.815107 338.867233l34.280151 119.567645c16.691511 58.21022-14.493189 111.17525-68.638224 126.70109s-109.745937-12.71751-125.271776-66.86255c-4.392503-15.31847 3.752632-30.91646 18.134907-35.04051 14.173836-4.06428 28.758896 3.28736 32.893809 16.45751l.175608.5848c8.248102 28.76455 36.380379 45.93332 67.017335 37.14831 30.330586-8.69715 46.486877-32.82762 36.578071-68.98177l-.308257-1.09926-33.434956-116.59435c-165.93662 40.760003-336.416348-49.982992-386.425404-201.145709-70.8108765-214.040521 79.988444-366.993923 191.17712-479.778771l-62.849018-219.1727532-.196229.2227362-14.396702-50.20726579-.675796-2.39652217c-10.874021-39.24221684-13.345305-83.12336884 46.609896-100.31524604 61.178777-17.542732 155.226015 21.8158616 187.737484 135.1968279zm-270.933284 694.5225791c46.016413 139.250265 179.857062 194.453036 294.858012 170.423289l-112.975358-393.97793c-77.638755 40.134902-108.607034 119.614552-83.996611 195.48627 28.540901 87.989026 78.818426 90.153729 73.156363 105.042541-5.153552 13.551644-76.962227-14.41085-108.562067-101.52274-28.474534-78.496299-8.013556-192.566762 103.409178-254.777983l-27.628082-96.357375c-103.506226 105.005481-185.704871 232.115348-138.261435 375.683928zm222.616137-239.598594-3.097506.911485 114.054867 397.744303c114.873644-43.271001 176.58638-146.002317 141.050779-258.674103-36.449096-115.56818-135.768464-173.312876-252.00814-139.981685zm353.956585-209.141974 33.552024 117.000981c19.216448-48.613048 91.416335-85.89404 116.892851 2.953132 16.814501 58.639133-7.82073 146.495098-73.905692 263.567895l-2.015262 3.556603-108.934071-379.898251c-3.514002-12.254782.856388-20.139174 13.11117-23.653177 12.060262-3.458224 17.771401 4.537672 21.29898 16.472817zm51.122035 178.274893 32.504521 113.356736c25.636673-49.348817 32.598339-94.447863 20.884998-135.297137-17.570011-61.273912-45.549352-20.094949-53.389519 21.940401zm-531.107195-518.3235695c-26.684851 7.6517578-27.707377 24.1965411-20.478141 49.800029l7.550804 26.3386908-.037594.0394155 63.385274 221.0620032 2.279385-2.537635c37.62279-42.13381 93.824326-117.659849 70.066907-195.5947038-27.890119-91.4919449-95.81224-106.836848-122.766635-99.1077997z" fill="#000" fill-opacity=".5"/><path d="m410.705862 26.3324579v1065.6214521c0 38.24593-22.310126 57.36889-54.181733 57.36889-31.871608 0-54.181734-24.25798-54.181734-54.18173 0-14.08176-12.128994-25.49729-27.090866-25.49729-14.961873 0-27.090867 12.74865-27.090867 28.68445 0 56.32705 45.662096 98.80198 101.989145 98.80198s100.902847-42.31758 100.902847-102.87363v-1089.72040323z" fill="#ffc44b" transform="matrix(.9612617 -.27563736 .27563736 .9612617 -152.068904 119.639914)"/><path d="m539.49386 894.997489 15.007076 52.326147c-6.204547 2.408915-12.541727 4.725989-19.010169 6.94898-6.404001 2.200846-12.826081 4.197093-19.258924 5.992903l-15.008336-52.347451c6.522471-1.653447 12.972359-3.566886 19.329558-5.739409 6.473776-2.212362 12.789827-4.608841 18.940795-7.18117zm-130.603902-455.4676 16.866072 58.821485c-2.391376.612228-4.79041 1.26319-7.196695 1.953181-10.968011 3.145027-21.297358 6.942223-30.973102 11.319561l-16.113911-56.182515c9.50991-4.830517 19.632951-9.29957 30.391934-13.359704 2.340336-.883176 4.682395-1.733782 7.025702-2.552008zm-57.546808-200.67649 24.127056 84.112973c-6.735962 7.022876-13.808762 14.151909-21.220109 21.405813l-2.795128 2.726104c-2.885284 2.804223-5.759091 5.625204-8.619207 8.462828l-23.578488-82.247443c2.882291-2.928823 5.732092-5.829913 8.544564-8.703657l4.904194-5.171245c5.478383-5.812032 11.859096-12.726755 18.637118-20.585373z" fill="#666" fill-opacity=".407835"/><path d="m283.519108-113.300381c61.178777-17.542732 155.226015 21.8158616 187.737484 135.1968279 32.186354 112.2471561-3.371718 191.9146641-112.104187 298.4801661l-3.317326 3.237552c-111.324539 108.196934-205.564066 241.341612-155.511771 392.804861s204.009689 203.489674 324.609867 162.275509c120.600177-41.214165 186.463506-146.324237 150.01441-261.892418-36.449096-115.56818-135.768464-173.312876-252.00814-139.981685-107.06286 30.699781-153.270994 123.541197-124.730094 211.530223 28.540901 87.989026 78.818426 90.153729 73.156363 105.042541-5.153552 13.551644-76.962227-14.41085-108.562067-101.52274-31.599839-87.111889-2.932531-218.035587 143.440719-273.272683 146.37325-55.237095 299.484897 16.929707 343.419314 170.147229s-35.010415 281.976517-209.792803 342.043491c-174.782389 60.066974-363.031338-32.268717-416.02104-192.441052-74.5302467-225.283086 96.44144-382.893269 208.33211-497.221547l3.105712-3.268132c34.812419-36.749364 111.443263-122.372994 84.389846-211.1201808-27.890119-91.4919449-95.81224-106.836848-122.766635-99.1077997-26.684851 7.6517578-27.707377 24.1965411-20.478141 49.800029l7.550804 26.33869076-32.001823 35.85015174-14.396702-50.2072658-.675796-2.3965222c-10.874021-39.2422168-13.345305-83.1233688 46.609896-100.315246zm472.077942 364.506022c12.060262-3.458224 17.771401 4.537672 21.29898 16.472817l33.552024 117.000981c19.216448-48.613048 91.416335-85.89404 116.892851 2.953132 16.814501 58.639133-7.82073 146.495098-73.905692 263.567895l-2.015262 3.556603-108.934071-379.898251c-3.514002-12.254782.856388-20.139174 13.11117-23.653177zm72.421015 194.74771 32.504521 113.356736c25.636673-49.348817 32.598339-94.447863 20.884998-135.297137-17.570011-61.273912-45.549352-20.094949-53.389519 21.940401z" fill="url(#b)"/></g></g></g></svg>